<mxfile host="Electron" modified="2024-05-28T07:55:33.351Z" agent="Mozilla/5.0 (Windows NT 10.0; Win64; x64) AppleWebKit/537.36 (KHTML, like Gecko) draw.io/24.2.5 Chrome/120.0.6099.109 Electron/28.1.0 Safari/537.36" etag="81-sp_EUhsaKrcXrr17f" version="24.2.5" type="device">
  <diagram name="使用案例圖" id="Yl148u14gGX9kU_zwqoo">
    <mxGraphModel dx="989" dy="577" grid="1" gridSize="10" guides="1" tooltips="1" connect="1" arrows="1" fold="1" page="1" pageScale="1" pageWidth="827" pageHeight="1169" math="0" shadow="0">
      <root>
        <mxCell id="0" />
        <mxCell id="1" parent="0" />
        <mxCell id="pyWRpl_zN9KXEDkuFeAj-1" value="使用者" style="shape=umlActor;verticalLabelPosition=bottom;verticalAlign=top;html=1;" parent="1" vertex="1">
          <mxGeometry x="60" y="280" width="30" height="60" as="geometry" />
        </mxCell>
        <mxCell id="pyWRpl_zN9KXEDkuFeAj-2" value="" style="rounded=0;whiteSpace=wrap;html=1;" parent="1" vertex="1">
          <mxGeometry x="140" y="50" width="400" height="480" as="geometry" />
        </mxCell>
        <mxCell id="pyWRpl_zN9KXEDkuFeAj-3" value="&lt;font style=&quot;font-size: 14px;&quot;&gt;會員登入&lt;/font&gt;" style="ellipse;whiteSpace=wrap;html=1;" parent="1" vertex="1">
          <mxGeometry x="160" y="170" width="180" height="60" as="geometry" />
        </mxCell>
        <mxCell id="pyWRpl_zN9KXEDkuFeAj-5" value="&lt;font style=&quot;font-size: 14px;&quot;&gt;會員資料管理&lt;/font&gt;" style="ellipse;whiteSpace=wrap;html=1;" parent="1" vertex="1">
          <mxGeometry x="160" y="240" width="180" height="60" as="geometry" />
        </mxCell>
        <mxCell id="pyWRpl_zN9KXEDkuFeAj-6" value="&lt;font style=&quot;font-size: 14px;&quot;&gt;商家條件查詢&lt;/font&gt;" style="ellipse;whiteSpace=wrap;html=1;" parent="1" vertex="1">
          <mxGeometry x="160" y="310" width="180" height="60" as="geometry" />
        </mxCell>
        <mxCell id="pyWRpl_zN9KXEDkuFeAj-7" value="&lt;font style=&quot;font-size: 14px;&quot;&gt;商家資訊檢視&lt;/font&gt;" style="ellipse;whiteSpace=wrap;html=1;" parent="1" vertex="1">
          <mxGeometry x="160" y="380" width="180" height="60" as="geometry" />
        </mxCell>
        <mxCell id="pyWRpl_zN9KXEDkuFeAj-8" value="&lt;font style=&quot;font-size: 14px;&quot;&gt;特定商家推薦&lt;/font&gt;" style="ellipse;whiteSpace=wrap;html=1;" parent="1" vertex="1">
          <mxGeometry x="160" y="450" width="180" height="60" as="geometry" />
        </mxCell>
        <mxCell id="pyWRpl_zN9KXEDkuFeAj-10" value="" style="endArrow=none;html=1;rounded=0;entryX=0;entryY=0.5;entryDx=0;entryDy=0;exitX=1;exitY=0.167;exitDx=0;exitDy=0;exitPerimeter=0;" parent="1" source="pyWRpl_zN9KXEDkuFeAj-1" target="pyWRpl_zN9KXEDkuFeAj-3" edge="1">
          <mxGeometry width="50" height="50" relative="1" as="geometry">
            <mxPoint x="90" y="340" as="sourcePoint" />
            <mxPoint x="170" y="330" as="targetPoint" />
          </mxGeometry>
        </mxCell>
        <mxCell id="pyWRpl_zN9KXEDkuFeAj-11" value="" style="endArrow=none;html=1;rounded=0;entryX=0;entryY=0.5;entryDx=0;entryDy=0;exitX=1;exitY=0.3333333333333333;exitDx=0;exitDy=0;exitPerimeter=0;" parent="1" source="pyWRpl_zN9KXEDkuFeAj-1" target="pyWRpl_zN9KXEDkuFeAj-5" edge="1">
          <mxGeometry width="50" height="50" relative="1" as="geometry">
            <mxPoint x="90" y="340" as="sourcePoint" />
            <mxPoint x="160" y="210" as="targetPoint" />
          </mxGeometry>
        </mxCell>
        <mxCell id="pyWRpl_zN9KXEDkuFeAj-12" value="" style="endArrow=none;html=1;rounded=0;entryX=0;entryY=0.5;entryDx=0;entryDy=0;exitX=1;exitY=0.5;exitDx=0;exitDy=0;exitPerimeter=0;" parent="1" source="pyWRpl_zN9KXEDkuFeAj-1" target="pyWRpl_zN9KXEDkuFeAj-6" edge="1">
          <mxGeometry width="50" height="50" relative="1" as="geometry">
            <mxPoint x="120" y="310" as="sourcePoint" />
            <mxPoint x="170" y="260" as="targetPoint" />
          </mxGeometry>
        </mxCell>
        <mxCell id="pyWRpl_zN9KXEDkuFeAj-13" value="" style="endArrow=none;html=1;rounded=0;entryX=0;entryY=0.5;entryDx=0;entryDy=0;exitX=1;exitY=0.667;exitDx=0;exitDy=0;exitPerimeter=0;" parent="1" source="pyWRpl_zN9KXEDkuFeAj-1" target="pyWRpl_zN9KXEDkuFeAj-7" edge="1">
          <mxGeometry width="50" height="50" relative="1" as="geometry">
            <mxPoint x="90" y="350" as="sourcePoint" />
            <mxPoint x="160.00000000000023" y="420.00000000000006" as="targetPoint" />
          </mxGeometry>
        </mxCell>
        <mxCell id="pyWRpl_zN9KXEDkuFeAj-14" value="" style="endArrow=none;html=1;rounded=0;entryX=0;entryY=0.5;entryDx=0;entryDy=0;exitX=1;exitY=0.833;exitDx=0;exitDy=0;exitPerimeter=0;" parent="1" source="pyWRpl_zN9KXEDkuFeAj-1" target="pyWRpl_zN9KXEDkuFeAj-8" edge="1">
          <mxGeometry width="50" height="50" relative="1" as="geometry">
            <mxPoint x="90" y="340" as="sourcePoint" />
            <mxPoint x="160" y="390.34" as="targetPoint" />
          </mxGeometry>
        </mxCell>
        <mxCell id="pyWRpl_zN9KXEDkuFeAj-15" value="系統" style="shape=umlActor;verticalLabelPosition=bottom;verticalAlign=top;html=1;" parent="1" vertex="1">
          <mxGeometry x="590" y="430" width="30" height="60" as="geometry" />
        </mxCell>
        <mxCell id="pyWRpl_zN9KXEDkuFeAj-16" value="" style="endArrow=none;html=1;rounded=0;exitX=1;exitY=0.5;exitDx=0;exitDy=0;entryX=0;entryY=0.5;entryDx=0;entryDy=0;entryPerimeter=0;" parent="1" source="pyWRpl_zN9KXEDkuFeAj-8" target="pyWRpl_zN9KXEDkuFeAj-15" edge="1">
          <mxGeometry width="50" height="50" relative="1" as="geometry">
            <mxPoint x="100" y="266" as="sourcePoint" />
            <mxPoint x="410.00000000000006" y="390" as="targetPoint" />
          </mxGeometry>
        </mxCell>
        <mxCell id="pyWRpl_zN9KXEDkuFeAj-19" value="評星宇宙" style="text;html=1;align=center;verticalAlign=middle;whiteSpace=wrap;rounded=0;" parent="1" vertex="1">
          <mxGeometry x="140" y="60" width="400" height="30" as="geometry" />
        </mxCell>
        <mxCell id="pyWRpl_zN9KXEDkuFeAj-20" value="&lt;font style=&quot;font-size: 14px;&quot;&gt;爬蟲程式控制&lt;/font&gt;" style="ellipse;whiteSpace=wrap;html=1;" parent="1" vertex="1">
          <mxGeometry x="350" y="210" width="180" height="60" as="geometry" />
        </mxCell>
        <mxCell id="pyWRpl_zN9KXEDkuFeAj-21" value="&lt;span style=&quot;font-size: 14px;&quot;&gt;爬蟲資料確認&lt;/span&gt;" style="ellipse;whiteSpace=wrap;html=1;" parent="1" vertex="1">
          <mxGeometry x="350" y="280" width="180" height="60" as="geometry" />
        </mxCell>
        <mxCell id="pyWRpl_zN9KXEDkuFeAj-22" value="管理者" style="shape=umlActor;verticalLabelPosition=bottom;verticalAlign=top;html=1;" parent="1" vertex="1">
          <mxGeometry x="590" y="220" width="30" height="60" as="geometry" />
        </mxCell>
        <mxCell id="pyWRpl_zN9KXEDkuFeAj-23" value="" style="endArrow=none;html=1;rounded=0;entryX=1;entryY=0.5;entryDx=0;entryDy=0;exitX=0;exitY=0.3333333333333333;exitDx=0;exitDy=0;exitPerimeter=0;" parent="1" source="pyWRpl_zN9KXEDkuFeAj-22" target="pyWRpl_zN9KXEDkuFeAj-20" edge="1">
          <mxGeometry width="50" height="50" relative="1" as="geometry">
            <mxPoint x="590" y="199.23529411764707" as="sourcePoint" />
            <mxPoint x="350" y="171" as="targetPoint" />
          </mxGeometry>
        </mxCell>
        <mxCell id="pyWRpl_zN9KXEDkuFeAj-24" value="" style="endArrow=none;html=1;rounded=0;entryX=1;entryY=0.5;entryDx=0;entryDy=0;exitX=0;exitY=0.5;exitDx=0;exitDy=0;exitPerimeter=0;" parent="1" source="pyWRpl_zN9KXEDkuFeAj-22" target="pyWRpl_zN9KXEDkuFeAj-21" edge="1">
          <mxGeometry width="50" height="50" relative="1" as="geometry">
            <mxPoint x="590" y="200" as="sourcePoint" />
            <mxPoint x="160" y="520" as="targetPoint" />
          </mxGeometry>
        </mxCell>
        <mxCell id="pyWRpl_zN9KXEDkuFeAj-26" value="&lt;span style=&quot;font-size: 14px;&quot;&gt;爬蟲程式執行&lt;/span&gt;" style="ellipse;whiteSpace=wrap;html=1;" parent="1" vertex="1">
          <mxGeometry x="350" y="380" width="180" height="60" as="geometry" />
        </mxCell>
        <mxCell id="pyWRpl_zN9KXEDkuFeAj-27" value="" style="endArrow=none;html=1;rounded=0;exitX=1;exitY=0.5;exitDx=0;exitDy=0;entryX=0;entryY=0.3333333333333333;entryDx=0;entryDy=0;entryPerimeter=0;" parent="1" source="pyWRpl_zN9KXEDkuFeAj-26" target="pyWRpl_zN9KXEDkuFeAj-15" edge="1">
          <mxGeometry width="50" height="50" relative="1" as="geometry">
            <mxPoint x="340" y="409.66" as="sourcePoint" />
            <mxPoint x="590" y="350" as="targetPoint" />
          </mxGeometry>
        </mxCell>
        <mxCell id="Er3Z3KmMZLWfYeELGhga-12" value="&lt;span style=&quot;font-size: 14px;&quot;&gt;管理帳號建立&lt;/span&gt;" style="ellipse;whiteSpace=wrap;html=1;" parent="1" vertex="1">
          <mxGeometry x="350" y="140" width="180" height="60" as="geometry" />
        </mxCell>
        <mxCell id="Er3Z3KmMZLWfYeELGhga-13" value="" style="endArrow=none;html=1;rounded=0;entryX=1;entryY=0.5;entryDx=0;entryDy=0;exitX=0;exitY=0.167;exitDx=0;exitDy=0;exitPerimeter=0;" parent="1" source="pyWRpl_zN9KXEDkuFeAj-22" target="Er3Z3KmMZLWfYeELGhga-12" edge="1">
          <mxGeometry width="50" height="50" relative="1" as="geometry">
            <mxPoint x="600" y="200" as="sourcePoint" />
            <mxPoint x="540" y="210" as="targetPoint" />
          </mxGeometry>
        </mxCell>
        <mxCell id="Er3Z3KmMZLWfYeELGhga-16" value="&lt;font style=&quot;font-size: 14px;&quot;&gt;會員註冊&lt;/font&gt;" style="ellipse;whiteSpace=wrap;html=1;" parent="1" vertex="1">
          <mxGeometry x="160" y="100" width="180" height="60" as="geometry" />
        </mxCell>
        <mxCell id="Er3Z3KmMZLWfYeELGhga-17" value="" style="endArrow=none;html=1;rounded=0;entryX=0;entryY=0.5;entryDx=0;entryDy=0;" parent="1" source="pyWRpl_zN9KXEDkuFeAj-1" target="Er3Z3KmMZLWfYeELGhga-16" edge="1">
          <mxGeometry width="50" height="50" relative="1" as="geometry">
            <mxPoint x="100" y="300" as="sourcePoint" />
            <mxPoint x="170" y="210" as="targetPoint" />
          </mxGeometry>
        </mxCell>
      </root>
    </mxGraphModel>
  </diagram>
</mxfile>
